<svg xmlns="http://www.w3.org/2000/svg" width="2400" height="1350" viewBox="0 0 2400 1350" role="img" aria-label="Luxury lounge with glowing Members Only NFT">
  <defs>
    <linearGradient id="g0" x1="0" y1="0" x2="1" y2="1">
      <stop offset="0" stop-color="#05070c"/>
      <stop offset="1" stop-color="#0b1020"/>
    </linearGradient>
    <radialGradient id="goldGlow" cx="30%" cy="24%" r="70%">
      <stop offset="0" stop-color="rgba(212,175,55,.26)"/>
      <stop offset="0.55" stop-color="rgba(212,175,55,.08)"/>
      <stop offset="1" stop-color="rgba(212,175,55,0)"/>
    </radialGradient>
    <radialGradient id="blueGlow" cx="80%" cy="18%" r="70%">
      <stop offset="0" stop-color="rgba(212,175,55,.14)"/>
      <stop offset="1" stop-color="rgba(120,180,255,0)"/>
    </radialGradient>
    <filter id="blur" x="-20%" y="-20%" width="140%" height="140%">
      <feGaussianBlur stdDeviation="8"/>
    </filter>
  </defs>

  <rect width="2400" height="1350" fill="url(#g0)"/>
  <rect width="2400" height="1350" fill="url(#goldGlow)"/>
  <rect width="2400" height="1350" fill="url(#blueGlow)"/>

  <g opacity="0.8"><path d="M 1187.1 130.9 Q 1347.7 348.9 805.0 794.7" stroke="rgba(243,210,122,0.071)" stroke-width="1.49" fill="none"/><path d="M 751.4 235.9 Q 1171.9 723.6 1616.1 1019.6" stroke="rgba(243,210,122,0.081)" stroke-width="1.40" fill="none"/><path d="M 1894.5 249.9 Q 2029.6 822.7 1581.4 1426.9" stroke="rgba(243,210,122,0.139)" stroke-width="1.22" fill="none"/><path d="M 1745.0 653.0 Q 1398.1 310.6 780.2 -42.7" stroke="rgba(243,210,122,0.127)" stroke-width="2.18" fill="none"/><path d="M 1879.9 108.5 Q 1167.8 39.8 494.9 386.5" stroke="rgba(243,210,122,0.070)" stroke-width="1.66" fill="none"/><path d="M 612.9 1150.6 Q 1491.3 910.8 2496.3 434.9" stroke="rgba(243,210,122,0.097)" stroke-width="1.05" fill="none"/><path d="M 2069.3 1103.9 Q 2045.3 648.7 1399.4 80.8" stroke="rgba(243,210,122,0.068)" stroke-width="1.40" fill="none"/><path d="M 1696.8 253.5 Q 943.3 438.5 836.2 225.2" stroke="rgba(243,210,122,0.067)" stroke-width="1.83" fill="none"/><path d="M 393.1 227.1 Q 1526.6 784.3 2582.2 1230.9" stroke="rgba(243,210,122,0.117)" stroke-width="1.75" fill="none"/><path d="M 2443.3 45.9 Q 1903.7 332.2 1123.1 662.3" stroke="rgba(243,210,122,0.075)" stroke-width="2.14" fill="none"/><path d="M 1597.5 1029.8 Q 1401.3 663.7 592.3 455.8" stroke="rgba(243,210,122,0.075)" stroke-width="1.95" fill="none"/><path d="M 2132.8 210.9 Q 953.8 476.7 141.1 527.3" stroke="rgba(243,210,122,0.091)" stroke-width="1.22" fill="none"/><path d="M 628.4 1144.6 Q 1173.5 1058.1 2193.0 561.5" stroke="rgba(243,210,122,0.132)" stroke-width="1.44" fill="none"/><path d="M 1629.6 211.0 Q 854.1 70.1 141.4 0.6" stroke="rgba(243,210,122,0.103)" stroke-width="2.18" fill="none"/></g>
  <g><circle cx="431.8" cy="841.4" r="4.3" fill="rgba(212,175,55,0.072)"/><circle cx="2215.7" cy="721.3" r="5.1" fill="rgba(212,175,55,0.054)"/><circle cx="982.2" cy="849.8" r="5.5" fill="rgba(212,175,55,0.128)"/><circle cx="550.0" cy="902.6" r="4.3" fill="rgba(212,175,55,0.054)"/><circle cx="129.9" cy="462.7" r="2.8" fill="rgba(212,175,55,0.102)"/><circle cx="441.7" cy="36.8" r="5.0" fill="rgba(212,175,55,0.057)"/><circle cx="1209.5" cy="1070.1" r="2.4" fill="rgba(212,175,55,0.089)"/><circle cx="2129.8" cy="823.1" r="5.4" fill="rgba(212,175,55,0.095)"/><circle cx="316.7" cy="458.8" r="5.9" fill="rgba(212,175,55,0.071)"/><circle cx="2022.3" cy="93.4" r="3.9" fill="rgba(212,175,55,0.058)"/><circle cx="855.9" cy="1089.1" r="5.9" fill="rgba(212,175,55,0.100)"/><circle cx="998.2" cy="873.3" r="3.0" fill="rgba(212,175,55,0.123)"/><circle cx="131.7" cy="641.0" r="3.9" fill="rgba(212,175,55,0.078)"/><circle cx="1817.1" cy="1000.3" r="2.2" fill="rgba(212,175,55,0.076)"/><circle cx="1421.3" cy="884.5" r="4.7" fill="rgba(212,175,55,0.118)"/><circle cx="1893.2" cy="1270.8" r="5.9" fill="rgba(212,175,55,0.116)"/><circle cx="2059.3" cy="575.3" r="4.5" fill="rgba(212,175,55,0.112)"/><circle cx="1730.9" cy="49.1" r="3.8" fill="rgba(212,175,55,0.122)"/><circle cx="1470.6" cy="749.4" r="4.3" fill="rgba(212,175,55,0.098)"/><circle cx="1069.0" cy="24.3" r="4.5" fill="rgba(212,175,55,0.129)"/><circle cx="278.9" cy="292.0" r="4.0" fill="rgba(212,175,55,0.126)"/><circle cx="1582.6" cy="275.7" r="3.9" fill="rgba(212,175,55,0.133)"/><circle cx="761.9" cy="549.4" r="5.2" fill="rgba(212,175,55,0.062)"/><circle cx="794.9" cy="217.2" r="2.6" fill="rgba(212,175,55,0.081)"/><circle cx="2387.1" cy="877.5" r="5.7" fill="rgba(212,175,55,0.088)"/><circle cx="312.5" cy="51.5" r="3.3" fill="rgba(212,175,55,0.124)"/><circle cx="1562.1" cy="760.3" r="3.9" fill="rgba(212,175,55,0.054)"/><circle cx="1274.6" cy="89.6" r="5.8" fill="rgba(212,175,55,0.113)"/><circle cx="714.7" cy="1076.8" r="2.3" fill="rgba(212,175,55,0.109)"/><circle cx="1094.2" cy="652.7" r="4.7" fill="rgba(212,175,55,0.129)"/><circle cx="935.7" cy="267.3" r="5.3" fill="rgba(212,175,55,0.124)"/><circle cx="2050.4" cy="1151.0" r="3.6" fill="rgba(212,175,55,0.106)"/><circle cx="2084.5" cy="1056.1" r="4.2" fill="rgba(212,175,55,0.115)"/><circle cx="626.1" cy="684.7" r="4.9" fill="rgba(212,175,55,0.056)"/><circle cx="2270.9" cy="127.2" r="5.4" fill="rgba(212,175,55,0.058)"/><circle cx="1588.4" cy="200.9" r="5.1" fill="rgba(212,175,55,0.083)"/><circle cx="758.8" cy="354.0" r="2.6" fill="rgba(212,175,55,0.109)"/><circle cx="1187.0" cy="218.2" r="3.6" fill="rgba(212,175,55,0.095)"/></g>

  <g filter="url(#blur)" opacity="0.9">
    <circle cx="1752.0" cy="621.0" r="210" fill="rgba(255,255,255,.04)"/>
  </g>

  <g><circle cx="1752.0" cy="621.0" r="160" fill="none" stroke="rgba(212,175,55,0.180)" stroke-width="1.2"/><circle cx="1752.0" cy="621.0" r="215" fill="none" stroke="rgba(212,175,55,0.150)" stroke-width="1.2"/><circle cx="1752.0" cy="621.0" r="270" fill="none" stroke="rgba(212,175,55,0.120)" stroke-width="1.2"/><circle cx="1752.0" cy="621.0" r="325" fill="none" stroke="rgba(212,175,55,0.090)" stroke-width="1.2"/></g>

  <g>
    <rect x="1562.0" y="555.0" width="380" height="132" rx="26" fill="rgba(255,255,255,.05)" stroke="rgba(255,255,255,.10)"/>
    <text x="1752.0" y="613.0" text-anchor="middle" font-family="ui-sans-serif,system-ui" font-size="50" fill="rgba(245,247,255,.92)" letter-spacing="2">W3</text>
    <text x="1752.0" y="655.0" text-anchor="middle" font-family="ui-sans-serif,system-ui" font-size="22" fill="rgba(245,247,255,.60)" letter-spacing="1">w3.rich</text>
  </g>

  <g opacity="0.9">
    <circle cx="432.0" cy="1053.0" r="280" fill="rgba(212,175,55,.06)"/>
    <circle cx="432.0" cy="1053.0" r="279" fill="none" stroke="rgba(255,255,255,.06)"/>
  </g>
</svg>